<svg xmlns="http://www.w3.org/2000/svg" width="105" height="40" viewBox="0 0 105 40" fill="none">
<path d="M3.00362 16.0495L9.55521 26.6085L17.0216 21.9757L10.4699 11.4168L3.00362 16.0495Z" fill="#0E90D9"/>
<path d="M44.9557 21.6985V27.9775C44.833 28.0082 44.672 28.0465 44.4727 28.0925C44.2734 28.1385 44.051 28.1615 43.8057 28.1615C43.3304 28.1615 42.9854 28.0772 42.7707 27.9085C42.5714 27.7245 42.4717 27.4255 42.4717 27.0115V14.0395C42.5944 14.0088 42.7554 13.9782 42.9547 13.9475C43.1694 13.9015 43.3917 13.8785 43.6217 13.8785C44.0664 13.8785 44.396 13.9628 44.6107 14.1315C44.8407 14.3002 44.9557 14.5992 44.9557 15.0285V20.2265L50.8667 13.9245C51.4494 13.9398 51.871 14.0702 52.1317 14.3155C52.3924 14.5455 52.5227 14.8215 52.5227 15.1435C52.5227 15.4042 52.4537 15.6495 52.3157 15.8795C52.1777 16.0942 51.9784 16.3318 51.7177 16.5925L47.3477 20.9165C48.6204 22.2198 49.732 23.3775 50.6827 24.3895C51.6487 25.3862 52.4767 26.1988 53.1667 26.8275C53.136 27.2568 52.9904 27.5942 52.7297 27.8395C52.4844 28.0695 52.1854 28.1845 51.8327 28.1845C51.4647 28.1845 51.1504 28.0848 50.8897 27.8855C50.6444 27.6862 50.3914 27.4562 50.1307 27.1955L44.9557 21.6985ZM57.8166 27.9545C57.7093 28.0005 57.556 28.0388 57.3566 28.0695C57.1726 28.1155 56.9656 28.1385 56.7356 28.1385C56.291 28.1385 55.9613 28.0542 55.7466 27.8855C55.532 27.7168 55.4246 27.4332 55.4246 27.0345V19.4905C55.4246 19.1072 55.5013 18.8005 55.6546 18.5705C55.808 18.3252 56.0533 18.0952 56.3906 17.8805C56.8353 17.6045 57.4026 17.3745 58.0926 17.1905C58.7826 17.0065 59.5416 16.9145 60.3696 16.9145C61.719 16.9145 62.3937 17.2978 62.3937 18.0645C62.3937 18.2485 62.363 18.4248 62.3017 18.5935C62.2403 18.7468 62.1713 18.8848 62.0947 19.0075C61.9413 18.9768 61.7496 18.9462 61.5197 18.9155C61.2896 18.8848 61.0443 18.8695 60.7836 18.8695C60.1703 18.8695 59.6106 18.9385 59.1046 19.0765C58.5986 19.1992 58.1693 19.3602 57.8166 19.5595V27.9545ZM68.2549 26.4595C68.7915 26.4595 69.2592 26.4058 69.6579 26.2985C70.0565 26.1912 70.3402 26.0762 70.5089 25.9535V23.0325L68.0019 23.2855C67.2965 23.3622 66.7675 23.5232 66.4149 23.7685C66.0622 23.9985 65.8859 24.3588 65.8859 24.8495C65.8859 25.3555 66.0775 25.7542 66.4609 26.0455C66.8442 26.3215 67.4422 26.4595 68.2549 26.4595ZM68.2089 16.9145C69.6349 16.9145 70.7695 17.2288 71.6129 17.8575C72.4562 18.4708 72.8779 19.4445 72.8779 20.7785V26.1375C72.8779 26.4902 72.7935 26.7662 72.6249 26.9655C72.4715 27.1495 72.2569 27.3258 71.9809 27.4945C71.5822 27.7245 71.0685 27.9238 70.4399 28.0925C69.8112 28.2612 69.0829 28.3455 68.2549 28.3455C66.7675 28.3455 65.6022 28.0542 64.7589 27.4715C63.9309 26.8888 63.5169 26.0302 63.5169 24.8955C63.5169 23.8835 63.8389 23.1092 64.4829 22.5725C65.1422 22.0358 66.0852 21.7062 67.3119 21.5835L70.5089 21.2615V20.7555C70.5089 20.0808 70.2865 19.5902 69.8419 19.2835C69.4125 18.9768 68.8069 18.8235 68.0249 18.8235C67.4115 18.8235 66.8212 18.9078 66.2539 19.0765C65.6865 19.2452 65.1805 19.4368 64.7359 19.6515C64.5825 19.5288 64.4522 19.3832 64.3449 19.2145C64.2375 19.0305 64.1839 18.8312 64.1839 18.6165C64.1839 18.3558 64.2452 18.1412 64.3679 17.9725C64.5059 17.8038 64.7129 17.6582 64.9889 17.5355C65.4182 17.3208 65.9089 17.1675 66.4609 17.0755C67.0129 16.9682 67.5955 16.9145 68.2089 16.9145ZM77.7314 25.4935C77.3481 24.7422 76.8804 23.6765 76.3284 22.2965C75.7764 20.9165 75.2398 19.3525 74.7184 17.6045C74.8564 17.4358 75.0404 17.2978 75.2704 17.1905C75.5004 17.0678 75.7458 17.0065 76.0064 17.0065C76.3438 17.0065 76.6198 17.0908 76.8344 17.2595C77.0491 17.4128 77.2254 17.6888 77.3634 18.0875C77.7774 19.3295 78.2068 20.5562 78.6514 21.7675C79.0961 22.9635 79.5868 24.2055 80.1234 25.4935H80.2154C80.4454 25.0028 80.6754 24.4278 80.9054 23.7685C81.1508 23.1092 81.3884 22.4115 81.6184 21.6755C81.8484 20.9395 82.0631 20.1958 82.2624 19.4445C82.4618 18.6778 82.6381 17.9495 82.7914 17.2595C82.9448 17.1828 83.0981 17.1215 83.2514 17.0755C83.4201 17.0295 83.6118 17.0065 83.8264 17.0065C84.1638 17.0065 84.4474 17.0908 84.6774 17.2595C84.9074 17.4128 85.0224 17.6582 85.0224 17.9955C85.0224 18.3942 84.9151 19.0075 84.7004 19.8355C84.5011 20.6482 84.2328 21.5528 83.8954 22.5495C83.5581 23.5308 83.1748 24.5275 82.7454 25.5395C82.3161 26.5515 81.8868 27.4485 81.4574 28.2305C80.6908 29.5798 79.9931 30.6072 79.3644 31.3125C78.7511 32.0178 78.1684 32.3705 77.6164 32.3705C77.1871 32.3705 76.8421 32.2478 76.5814 32.0025C76.3361 31.7725 76.1828 31.4812 76.1214 31.1285C76.3668 30.9138 76.6351 30.6532 76.9264 30.3465C77.2178 30.0398 77.5091 29.7102 77.8004 29.3575C78.0918 29.0048 78.3678 28.6368 78.6284 28.2535C78.8891 27.8855 79.1114 27.5252 79.2954 27.1725C79.0348 27.0958 78.7818 26.9502 78.5364 26.7355C78.2911 26.5055 78.0228 26.0915 77.7314 25.4935ZM89.8262 27.9545C89.7189 28.0005 89.5655 28.0388 89.3662 28.0695C89.1822 28.1155 88.9675 28.1385 88.7222 28.1385C88.2775 28.1385 87.9479 28.0542 87.7332 27.8855C87.5185 27.7168 87.4112 27.4332 87.4112 27.0345V17.3055C87.5339 17.2748 87.6872 17.2365 87.8712 17.1905C88.0705 17.1445 88.2929 17.1215 88.5382 17.1215C88.9829 17.1215 89.3049 17.2058 89.5042 17.3745C89.7189 17.5432 89.8262 17.8345 89.8262 18.2485V27.9545ZM87.1582 13.9245C87.1582 13.5258 87.2962 13.1962 87.5722 12.9355C87.8482 12.6595 88.2009 12.5215 88.6302 12.5215C89.0595 12.5215 89.4045 12.6595 89.6652 12.9355C89.9259 13.1962 90.0562 13.5258 90.0562 13.9245C90.0562 14.3232 89.9259 14.6605 89.6652 14.9365C89.4045 15.1972 89.0595 15.3275 88.6302 15.3275C88.2009 15.3275 87.8482 15.1972 87.5722 14.9365C87.2962 14.6605 87.1582 14.3232 87.1582 13.9245ZM100.382 21.0315C100.382 20.2802 100.167 19.7282 99.7381 19.3755C99.3241 19.0228 98.7568 18.8465 98.0361 18.8465C97.4994 18.8465 97.0164 18.9155 96.5871 19.0535C96.1731 19.1915 95.8128 19.3448 95.5061 19.5135V27.9545C95.3988 28.0005 95.2454 28.0388 95.0461 28.0695C94.8621 28.1155 94.6551 28.1385 94.4251 28.1385C93.9804 28.1385 93.6508 28.0542 93.4361 27.8855C93.2214 27.7168 93.1141 27.4332 93.1141 27.0345V19.4445C93.1141 19.0918 93.1831 18.8082 93.3211 18.5935C93.4591 18.3788 93.6891 18.1642 94.0111 17.9495C94.4404 17.6888 95.0001 17.4512 95.6901 17.2365C96.3801 17.0218 97.1621 16.9145 98.0361 16.9145C99.5234 16.9145 100.689 17.2518 101.532 17.9265C102.375 18.5858 102.797 19.5902 102.797 20.9395V27.9545C102.69 28.0005 102.536 28.0388 102.337 28.0695C102.138 28.1155 101.923 28.1385 101.693 28.1385C101.248 28.1385 100.919 28.0542 100.704 27.8855C100.489 27.7168 100.382 27.4332 100.382 27.0345V21.0315Z" fill="#263238"/>
<path d="M19.7123 1.03006C19.6846 1.04519 19.6543 1.0704 19.6442 1.08553C19.6064 1.13848 19.6241 1.25194 19.677 1.30489C19.7249 1.3528 19.7451 1.35532 20.1359 1.34019C20.5091 1.32254 21.5277 1.35784 21.7849 1.39314C21.8757 1.40575 21.8984 1.4007 21.9564 1.34271C22.0371 1.25951 22.032 1.16117 21.9438 1.09814C21.8933 1.06284 21.7975 1.04771 21.495 1.02502C20.9655 0.989717 19.7779 0.992238 19.7123 1.03006Z" fill="black"/>
<path d="M17.3422 1.30237C16.5228 1.46626 15.6781 1.70075 15.61 1.78648C15.5495 1.85456 15.552 1.93524 15.6151 2.00332C15.6806 2.07392 15.7336 2.0714 15.9781 1.99576C16.2757 1.89994 17.0447 1.70832 17.4506 1.63015C17.8364 1.55451 17.9095 1.51921 17.9095 1.40071C17.9095 1.32507 17.8087 1.22421 17.7355 1.22925C17.7129 1.22925 17.5364 1.26203 17.3422 1.30237Z" fill="black"/>
<path d="M23.8096 1.38553C23.7137 1.43344 23.6885 1.53933 23.749 1.62002C23.7919 1.67801 23.8575 1.70322 24.2256 1.79399C24.7324 1.92006 25.0602 2.01588 25.5241 2.1722C25.8191 2.27054 25.8746 2.28315 25.9351 2.25793C26.0107 2.22767 26.0435 2.14447 26.0183 2.04866C26.0082 2.00831 25.9653 1.97301 25.8847 1.93771C25.6628 1.84442 24.9618 1.62758 24.4777 1.50403C23.8499 1.34519 23.8802 1.35023 23.8096 1.38553Z" fill="black"/>
<path d="M13.2928 2.69666C12.5389 3.07991 11.896 3.46568 11.8506 3.56402C11.8153 3.6447 11.8682 3.7506 11.964 3.78338C12.022 3.80355 12.08 3.77581 12.4406 3.55897C12.6675 3.4203 13.0861 3.19085 13.371 3.04713C13.6559 2.90089 13.908 2.76473 13.9333 2.74456C13.9963 2.68909 13.9887 2.55042 13.9206 2.50251C13.8904 2.47982 13.84 2.46217 13.8122 2.46217C13.782 2.46217 13.55 2.56807 13.2928 2.69666Z" fill="black"/>
<path d="M27.6472 2.80512C27.5816 2.8505 27.5715 2.9917 27.6295 3.04969C27.6497 3.06987 27.7833 3.15055 27.927 3.22619C28.28 3.4153 28.7162 3.68004 29.1247 3.95235C29.3088 4.0759 29.4853 4.17676 29.5155 4.17676C29.5811 4.17676 29.6845 4.08094 29.6845 4.02043C29.6845 3.93723 29.6492 3.89436 29.46 3.76325C28.9558 3.41025 27.8539 2.76478 27.7531 2.76478C27.7253 2.76478 27.6774 2.78243 27.6472 2.80512Z" fill="black"/>
<path d="M19.3215 4.55752C17.612 4.76428 16.1244 5.61651 15.2747 6.87468C15.194 6.99319 15.1259 7.09405 15.1209 7.09909C15.1158 7.10413 14.9721 7.06127 14.8032 7.0058C13.6332 6.6175 12.3322 6.63767 11.185 7.06631C9.70491 7.61597 8.65601 8.75312 8.35092 10.1399C8.27024 10.5004 8.26015 11.0728 8.32319 11.4535C8.50473 12.5125 9.08717 13.4026 10.0579 14.101C10.3403 14.3052 10.9 14.5876 11.2858 14.7238L11.5833 14.8297V15.4651C11.5833 15.9492 11.5909 16.103 11.6136 16.103C11.6313 16.103 11.6792 16.0828 11.7195 16.0576C11.7624 16.0324 13.8602 14.8221 16.3841 13.3673C18.908 11.915 21.0008 10.7047 21.0361 10.6795C21.0789 10.6517 21.1117 10.5912 21.1344 10.5055C21.1798 10.324 21.384 9.92305 21.5429 9.69865C21.7042 9.4692 22.1152 9.04308 22.3699 8.83633C23.9457 7.56807 26.1394 7.19995 27.0118 8.05974C27.9346 8.96492 26.9109 10.7677 24.9316 11.7284C24.5004 11.9376 24.1701 12.0587 23.7718 12.152C23.2473 12.2755 22.7456 12.3032 22.3371 12.2326L22.1152 12.1948L20.2847 13.2488C19.2761 13.8312 16.9211 15.1877 15.0477 16.2669C13.1769 17.3435 11.6287 18.2386 11.6136 18.2512C11.5884 18.2714 11.5808 19.0253 11.5808 21.8064C11.5808 25.1195 11.5833 25.3363 11.6237 25.3212C11.6464 25.3111 12.3146 24.9304 13.1063 24.4765C13.8955 24.0202 16.0588 22.7771 17.9095 21.7131C19.7602 20.6491 21.2857 19.7716 21.2958 19.759C21.3058 19.7489 21.2529 19.6632 21.1772 19.5699C21.0108 19.3682 21.0008 19.2976 21.1066 19.1261C21.6235 18.3142 24.4349 16.7308 25.3577 16.7333C25.5872 16.7333 25.5998 16.7636 25.4031 16.8443C24.5912 17.1897 22.7481 18.2689 22.1152 18.7706C21.8429 18.9875 21.8404 18.995 21.9866 19.1791C22.1051 19.3304 22.1102 19.3329 22.206 19.3178C22.6573 19.2497 24.7702 18.1025 25.7687 17.3839C25.9376 17.2628 26.0057 17.23 26.1217 17.2124C26.4722 17.1544 26.5428 17.2527 26.3713 17.5452C26.3133 17.6436 26.2805 17.6688 26.0864 17.752C25.2518 18.11 23.4793 19.1514 22.8464 19.6531C22.6245 19.8321 22.5791 19.8926 22.6296 19.9557C22.7884 20.1599 22.8414 20.2129 22.8943 20.2129C23.2372 20.2129 25.4787 19.0026 26.505 18.2638L26.7193 18.11H26.926C27.0975 18.11 27.1454 18.1201 27.1883 18.1579C27.2261 18.1932 27.2362 18.2235 27.2261 18.2714C27.1958 18.3874 27.0622 18.5966 27.0042 18.6143C26.8932 18.6471 26.0335 19.0782 25.6502 19.2925C24.5181 19.9279 23.502 20.5986 23.386 20.7928C23.3557 20.8407 23.3658 20.8609 23.4843 20.997C23.6104 21.1433 23.6205 21.1483 23.7062 21.1332C24.1651 21.0474 26.162 19.9708 27.153 19.2724C27.395 19.1034 27.4555 19.0707 27.4606 19.106C27.4959 19.3077 26.9311 19.8498 26.1671 20.3541C24.9795 21.1332 23.6961 21.7005 23.1238 21.7005C22.9321 21.7005 22.912 21.6879 22.7178 21.4534L22.6497 21.3702L17.6801 24.2269C14.9469 25.8003 12.7104 27.0963 12.7104 27.1089C12.7104 27.1442 13.2046 27.3484 13.608 27.482C14.9267 27.9208 16.7396 28.2082 18.8399 28.3091C19.5333 28.3418 21.5832 28.3267 22.1581 28.2838C23.1591 28.2082 23.8499 28.13 24.5786 28.014C26.8327 27.6535 28.4212 26.9954 28.7792 26.2743L28.8398 26.1507L28.8473 20.7802L28.8524 15.4096L29.0616 15.339C29.5785 15.16 30.2215 14.7793 30.6678 14.3834C31.578 13.574 32.1781 12.4495 32.3722 11.1863C32.4328 10.7879 32.4328 10.0416 32.3722 9.64822C32.2184 8.64975 31.8276 7.75213 31.2275 7.0184C31.0208 6.76626 30.5947 6.36032 30.3476 6.17626C29.6466 5.65433 28.8473 5.33411 28.0153 5.23578C27.6295 5.19039 26.9033 5.21561 26.5478 5.28621C25.8317 5.4274 25.0652 5.77284 24.5231 6.19643C24.4349 6.26451 24.3567 6.31998 24.3441 6.31998C24.334 6.31998 24.2458 6.23929 24.15 6.14096C23.3784 5.35933 22.2085 4.78697 20.973 4.5903C20.6755 4.5424 19.6115 4.52222 19.3215 4.55752Z" fill="black"/>
<path d="M9.9142 5.00385C9.46287 5.40727 8.73671 6.15612 8.71401 6.24185C8.6888 6.34271 8.75436 6.43095 8.86026 6.44104C8.94598 6.4486 8.96615 6.43095 9.28637 6.09309C9.47043 5.89642 9.79317 5.58125 10.0024 5.39214C10.5269 4.9156 10.5219 4.92064 10.5219 4.84752C10.5219 4.76179 10.4386 4.68111 10.3504 4.68111C10.2924 4.68111 10.1991 4.75171 9.9142 5.00385Z" fill="black"/>
<path d="M30.9955 5.18527C30.8871 5.29369 30.9199 5.34917 31.288 5.71477C31.6107 6.03751 32.0469 6.51153 32.3142 6.82922C32.4125 6.94521 32.4504 6.97546 32.5109 6.97546C32.6042 6.97546 32.6849 6.89478 32.6849 6.80401C32.6849 6.69307 32.0595 5.98456 31.4191 5.36681C31.1594 5.1172 31.0913 5.08946 30.9955 5.18527Z" fill="black"/>
<path d="M7.51383 7.78237C7.39784 7.87314 6.86583 8.76571 6.56074 9.37589C6.41702 9.66333 6.40441 9.70115 6.43215 9.75914C6.44728 9.79696 6.49014 9.8373 6.52544 9.85495C6.63386 9.90286 6.70194 9.84991 6.81792 9.61794C7.04233 9.16913 7.37263 8.59425 7.6525 8.1631C7.80379 7.93113 7.81135 7.83027 7.68024 7.75967C7.60712 7.72185 7.58947 7.72437 7.51383 7.78237Z" fill="black"/>
<path d="M33.6077 8.36484C33.5144 8.43796 33.522 8.53125 33.643 8.72792C33.8548 9.07335 34.2557 9.86255 34.4499 10.3164C34.4751 10.3769 34.5255 10.445 34.5608 10.4677C34.6667 10.5383 34.8029 10.4601 34.8029 10.329C34.8029 10.1374 33.9405 8.45813 33.7867 8.34971C33.7161 8.29928 33.6884 8.3018 33.6077 8.36484Z" fill="black"/>
<path d="M5.73872 11.4761C5.63787 11.5467 5.41094 12.3662 5.23697 13.2916C5.18654 13.5563 5.1815 13.6319 5.20419 13.6899C5.25714 13.8135 5.45129 13.8135 5.49919 13.6899C5.51432 13.6496 5.55718 13.4605 5.59248 13.2663C5.66813 12.8579 5.82445 12.2174 5.93287 11.867C5.97574 11.7308 6.00851 11.6073 6.00851 11.5921C6.00851 11.5467 5.89001 11.4383 5.83958 11.4383C5.81437 11.4383 5.76898 11.456 5.73872 11.4761Z" fill="black"/>
<path d="M35.2391 12.1191C35.1231 12.167 35.1206 12.2199 35.2164 12.6183C35.3274 13.0873 35.3929 13.4353 35.4686 13.9547C35.5341 14.401 35.5619 14.464 35.6905 14.464C35.7636 14.464 35.8619 14.3883 35.8619 14.3304C35.8619 14.3127 35.8443 14.1665 35.8241 14.0076C35.7358 13.3243 35.5013 12.225 35.4307 12.1569C35.3803 12.109 35.3022 12.0939 35.2391 12.1191Z" fill="black"/>
<path d="M5.05547 15.5558C5.00252 15.6113 5 15.639 5 16.0197C5 16.4635 5.03278 17.0283 5.08825 17.5023C5.11598 17.757 5.13111 17.8099 5.1765 17.8477C5.24962 17.9083 5.34039 17.9057 5.40342 17.8427C5.45889 17.7872 5.46394 17.7141 5.42864 17.4645C5.39082 17.1897 5.353 16.5442 5.34543 16.0576C5.34039 15.6037 5.33787 15.5936 5.27987 15.5457C5.20171 15.4827 5.12103 15.4852 5.05547 15.5558Z" fill="black"/>
<path d="M35.6677 15.7802C35.6223 15.8332 35.6147 15.8962 35.587 16.4812C35.5718 16.8342 35.5416 17.2603 35.5214 17.4267C35.4458 18.0545 35.4483 18.0091 35.5063 18.0671C35.5718 18.1327 35.6878 18.1352 35.7458 18.0722C35.829 17.9814 35.9374 16.9275 35.9374 16.224C35.9374 15.8181 35.9349 15.8029 35.882 15.7651C35.8038 15.7096 35.7282 15.7147 35.6677 15.7802Z" fill="black"/>
<path d="M5.56478 19.6455C5.53452 19.6909 5.52948 19.7338 5.54209 19.8018C5.58999 20.0565 6.00855 21.234 6.20774 21.6803C6.2859 21.8543 6.41197 21.9022 6.51282 21.8013C6.58595 21.7282 6.57586 21.6652 6.4624 21.3954C6.30859 21.0399 6.10184 20.4725 5.97073 20.0489C5.90769 19.8422 5.83457 19.6506 5.8144 19.6279C5.75136 19.5598 5.61521 19.5699 5.56478 19.6455Z" fill="black"/>
<path d="M35.0853 19.8271C35.0525 19.8548 34.987 20.0111 34.9139 20.238C34.7676 20.6919 34.5987 21.1357 34.4146 21.5567C34.3314 21.7484 34.281 21.8946 34.2911 21.9223C34.3541 22.1013 34.5382 22.1039 34.6264 21.9249C34.8105 21.5693 35.3576 20.0918 35.3576 19.9556C35.3576 19.8926 35.2492 19.7842 35.1862 19.7842C35.1584 19.7842 35.113 19.8044 35.0853 19.8271Z" fill="black"/>
<path d="M7.23395 23.3948C7.21125 23.4251 7.1936 23.4755 7.1936 23.5032C7.1936 23.6268 8.22737 25.0816 8.45934 25.2858C8.55516 25.3716 8.71653 25.3211 8.73165 25.2052C8.74426 25.1169 8.72409 25.0766 8.58793 24.9127C8.34588 24.6177 7.92481 24.0453 7.72814 23.7428C7.62224 23.5839 7.51634 23.4276 7.48861 23.3948C7.41801 23.3192 7.2869 23.3192 7.23395 23.3948Z" fill="black"/>
<path d="M33.3858 23.5411C33.3631 23.5562 33.2245 23.7403 33.0782 23.9521C32.8286 24.3126 32.5765 24.6455 32.2134 25.0918C32.0419 25.2985 32.0218 25.3742 32.105 25.4574C32.1655 25.5179 32.2487 25.5229 32.3243 25.47C32.4378 25.3893 33.1337 24.4917 33.4665 23.995C33.643 23.7327 33.6657 23.6394 33.5699 23.5613C33.5043 23.5108 33.4514 23.5058 33.3858 23.5411Z" fill="black"/>
<path d="M9.90661 26.5188C9.80828 26.597 9.81836 26.7029 9.93687 26.8113C10.2369 27.0912 10.7866 27.5324 11.243 27.8602C11.5682 28.0947 11.659 28.1249 11.7447 28.0291C11.8128 27.9535 11.8002 27.8501 11.717 27.7846C11.6766 27.7543 11.4396 27.5753 11.19 27.3912C10.9404 27.2046 10.6076 26.9399 10.4487 26.8037C10.1487 26.5415 10.0478 26.4659 10.0024 26.4659C9.9873 26.4659 9.94443 26.4886 9.90661 26.5188Z" fill="black"/>
<path d="M30.7182 26.6348C30.698 26.6449 30.5518 26.7609 30.3904 26.8945C30.0702 27.1643 29.629 27.4996 29.2482 27.7644C28.9784 27.9484 28.928 28.0165 28.9734 28.1174C29.0062 28.1905 29.107 28.2384 29.1726 28.2132C29.2533 28.1854 29.9946 27.6585 30.34 27.3811C30.7661 27.0433 30.9451 26.8693 30.9451 26.8012C30.9451 26.6978 30.8115 26.5995 30.7182 26.6348Z" fill="black"/>
<path d="M13.3257 28.8108C13.2525 28.8411 13.2147 28.9419 13.245 29.0277C13.2651 29.0781 13.3433 29.126 13.6055 29.2521C14.0367 29.4588 14.5586 29.6782 14.9797 29.832L15.315 29.953L15.3831 29.9026C15.4562 29.8471 15.4815 29.7488 15.4411 29.6731C15.426 29.6454 15.3024 29.5849 15.1184 29.5168C14.7023 29.363 14.1224 29.1209 13.7392 28.9394C13.5601 28.8537 13.4063 28.7856 13.3988 28.7881C13.3912 28.7881 13.3584 28.7982 13.3257 28.8108Z" fill="black"/>
<path d="M27.0748 29.0024C26.6487 29.1965 26.0839 29.4285 25.7309 29.552C25.5468 29.6151 25.3728 29.6806 25.3451 29.6957C25.2342 29.7537 25.2443 29.9378 25.3628 29.9907C25.4132 30.016 25.4636 30.0059 25.6578 29.9428C25.9931 29.8294 26.6537 29.5697 27.0546 29.3881C27.4959 29.1915 27.5866 29.1007 27.4732 28.9671C27.395 28.8763 27.3395 28.8813 27.0748 29.0024Z" fill="black"/>
<path d="M17.1683 30.195C17.1078 30.2605 17.1078 30.3664 17.1683 30.4269C17.2666 30.5227 18.9862 30.7774 19.3342 30.7472C19.4527 30.7371 19.5157 30.6539 19.488 30.5429C19.4653 30.4471 19.4149 30.4295 19.0921 30.3992C18.6685 30.3614 18.2475 30.3059 17.8214 30.2328C17.254 30.1345 17.2238 30.1319 17.1683 30.195Z" fill="black"/>
<path d="M23.318 30.2001C23.0658 30.253 22.148 30.374 21.8177 30.3992C21.616 30.4144 21.4143 30.432 21.3689 30.4396C21.2076 30.4648 21.1647 30.6539 21.3008 30.7422C21.3588 30.78 21.4017 30.78 21.737 30.7548C22.1682 30.7195 22.7305 30.6489 23.1793 30.5732C23.5146 30.5178 23.6079 30.4698 23.6079 30.3589C23.6079 30.2908 23.5373 30.2051 23.4692 30.19C23.4415 30.1849 23.3734 30.1875 23.318 30.2001Z" fill="black"/>
</svg>